<svg width="64" height="64" viewBox="0 0 64 64" xmlns="http://www.w3.org/2000/svg">
  <defs>
    <linearGradient id="p" x1="0" y1="0" x2="0.4" y2="1"><stop offset="0" stop-color="#bd72d3"/><stop offset="1" stop-color="#9c4cb6"/></linearGradient>
    <linearGradient id="b" x1="0" y1="0" x2="0.4" y2="1"><stop offset="0" stop-color="#1fb6ea"/><stop offset="1" stop-color="#0090c6"/></linearGradient>
    <linearGradient id="m" x1="0" y1="0" x2="0.4" y2="1"><stop offset="0" stop-color="#6e96e0"/><stop offset="1" stop-color="#4a72c2"/></linearGradient>
  </defs>
  <rect width="64" height="64" rx="15" fill="#000B25"/>
  <rect x="13" y="10" width="22" height="31" rx="6" fill="url(#p)"/>
  <rect x="29" y="23" width="22" height="31" rx="6" fill="url(#b)"/>
  <g>
    <rect x="21" y="16" width="22" height="31" rx="6" fill="url(#m)"/>
    <g fill="#081232">
      <rect x="24" y="20" width="3.4" height="5" rx="1.4"/><rect x="24" y="29" width="3.4" height="5" rx="1.4"/><rect x="24" y="38" width="3.4" height="5" rx="1.4"/>
      <rect x="36.6" y="20" width="3.4" height="5" rx="1.4"/><rect x="36.6" y="29" width="3.4" height="5" rx="1.4"/><rect x="36.6" y="38" width="3.4" height="5" rx="1.4"/>
    </g>
  </g>
</svg>
